<svg id="レイヤー_1" data-name="レイヤー 1" xmlns="http://www.w3.org/2000/svg" viewBox="0 0 1282.96 1025"><defs><style>.cls-1{fill:none;}.cls-2{opacity:0.8;}.cls-3{fill:#f2f2f2;}.cls-4{fill:#ffc;}</style></defs><title>background</title><path class="cls-1" d="M1102,584" transform="translate(1.46 0.5)"/><g class="cls-2"><path class="cls-3" d="M1169,727c-42.39,37.22-30.19,87.85-78,129-12.8,11-17,10.24-87,35-88.16,31.17-137.52,48.83-190,77a694.57,694.57,0,0,0-88.33,56.5H.54L3.38,707.85C87.17,679,143.79,640.63,180,611c105.14-86,105.59-153.95,216-221,69.76-42.37,88.86-27,136-71,73.92-69.06,48.83-127.37,110-167,72.1-46.72,146,9,204-41C880.72,81.07,887.44,32.53,888.5.5l393,1v696C1221.09,693.77,1188.14,710.2,1169,727Z" transform="translate(1.46 0.5)"/></g><g class="cls-2"><path class="cls-4" d="M1279.5,696.5c-12.61,79.34-39.7,109.94-65.5,121.5-65.21,29.22-150.28-50.66-187-17-17,15.63-2.13,36-25,89-12.25,28.39-23,53.29-46,65-41.09,20.92-76.9-22.84-131-15-26.32,3.82-63,20.72-101.69,83.5H-1.46L1.41,702.71C56.65,565.93,127.49,509.35,186,484c110.78-48,210.82,1.51,264-64,46.23-56.95-12.5-115.14,28-177,70.68-107.95,303.43-13,385-126C889.68,80.05,890.56,34.18,886.5-.5l393,1Z" transform="translate(1.46 0.5)"/></g></svg>