<svg viewBox="0 0 1280 315.88" xmlns="http://www.w3.org/2000/svg"><path d="m1280 266.82c-518.78 81.65-746.73 48.18-856-4.82-24.56-11.9-113.24-58.76-230-53-83.93 4.14-151.09 33.92-194 57.82v-123.82h1280z" fill="#f60"/><path d="m1280 269.45c-144.2 34.25-266.64 41-361 38.55-230.27-5.92-332.48-67.39-564-74-142.28-4.06-263.59 14.59-355 35.45v-269.45h1280z" fill="#7bffa3"/><path d="m1280 274.07c-240.32-38.59-429.13-30.84-558-16.33-128.26 14.44-233.42 39.66-412 40.26a1936.79 1936.79 0 0 1 -310-23.93v-274.07h1280z" fill="#09ce4a" opacity=".58"/><g opacity=".88"><path d="m492.93 287.69q-18.74-5.91-38.43-13.19a820.83 820.83 0 0 1 -91.5-40.5 909.29 909.29 0 0 1 187.39 15.49c29.84 5.63 57.8 12.42 83.75 19.89l-.14.62-140.56 18.23z" fill="#ff0"/><g fill="none" stroke="#ff0" stroke-miterlimit="10"><path d="m493.44 288.23 140.56-18.23"/><path d="m363 234a820.83 820.83 0 0 0 91.5 40.5q19.67 7.29 38.43 13.19"/><path d="m363 234a909.29 909.29 0 0 1 187.39 15.49c29.84 5.63 57.8 12.42 83.75 19.89l.36.1"/></g></g></svg>