<svg id="レイヤー_1" data-name="レイヤー 1" xmlns="http://www.w3.org/2000/svg" viewBox="0 0 4002 291.77"><defs><style>.cls-1,.cls-5{fill:#e55812;}.cls-1{stroke:#ff66ac;}.cls-1,.cls-10,.cls-11,.cls-2,.cls-3,.cls-8,.cls-9{stroke-miterlimit:10;}.cls-1,.cls-2,.cls-3{opacity:0.5;}.cls-2{fill:#ff0;}.cls-2,.cls-8{stroke:#ff0;}.cls-10,.cls-3,.cls-6{fill:#7bffa3;}.cls-10,.cls-3{stroke:#7bffa3;}.cls-11,.cls-4,.cls-9{fill:#09ce4a;}.cls-7{fill:#f60;}.cls-8{fill:none;}.cls-11,.cls-9{stroke:#09ce4a;}.cls-9{opacity:0.9;}</style></defs><title>footer-image</title><path class="cls-1" d="M-.5,45c905.56-47.62,1376.1-32.36,1640-5,53.4,5.54,211.81,23.33,428,26,217,2.68,296.05-12.32,615-32,380.8-23.5,575.75-32.65,807-17,115.19,7.8,289.06,26.32,502,77q4,76.5,8,153H-.5Z" transform="translate(1 -8.73)"/><path class="cls-2" d="M-.5,24c46,4.95,117,11.53,204,15,210.2,8.38,352.77-7.84,458-16C941,1.32,945,37.42,1482.5,41c153,1,116.2-2.15,436-5,380.44-3.39,692.87-6.17,1081,3,235.45,5.57,322.23,11.36,518,8,203.77-3.5,370.92-14.26,482-23V258H-.5Z" transform="translate(1 -8.73)"/><path class="cls-3" d="M-.5,62C216.59,79.88,392,78.4,509.56,74.06,755.17,65,804.46,41.4,1023.63,42.53c226.9,1.17,255,26.88,482.06,33.38,245.13,7,319-19.89,566.07-33.38,361.21-19.73,381.95,66.14,773.1,28.75C3037.13,52.9,3113.23,18.94,3303.5,31c141.31,9,212,13.44,297,34,82.88,20,133.08,41.77,212,37C3893.45,97.11,3958,67.16,4000,42.53V279H-.5Z" transform="translate(1 -8.73)"/><path class="cls-4" d="M1172,25.5" transform="translate(1 -8.73)"/><path class="cls-5" d="M1817,112.5" transform="translate(1 -8.73)"/><path class="cls-6" d="M1110,261.5" transform="translate(1 -8.73)"/><path class="cls-7" d="M1030,137.5" transform="translate(1 -8.73)"/><path class="cls-4" d="M712,523.5" transform="translate(1 -8.73)"/><path class="cls-6" d="M881-18.5" transform="translate(1 -8.73)"/><path class="cls-8" d="M2141.5,436" transform="translate(1 -8.73)"/><path class="cls-9" d="M.5,66c329.4-18.15,596.22-12.06,780-3,213.07,10.5,282.18,23.38,486,31,304.63,11.38,348.31-10,742-17,629.95-11.15,723.89,39.42,1144,0,66.77-6.26,167-17.17,311-19a3222.37,3222.37,0,0,1,537,38V300H.5Z" transform="translate(1 -8.73)"/><path class="cls-10" d="M2946.5-34" transform="translate(1 -8.73)"/><path class="cls-11" d="M1352.5-167" transform="translate(1 -8.73)"/></svg>