<svg id="レイヤー_1" data-name="レイヤー 1" xmlns="http://www.w3.org/2000/svg" viewBox="0 0 1280 195.88"><defs><style>.cls-1{fill:#f60;}.cls-2{fill:#7bffa3;}.cls-3{opacity:0.58;}.cls-4{fill:#09ce4a;}.cls-5{fill:#e55812;}.cls-6{fill:none;stroke:#ff0;stroke-miterlimit:10;}.cls-7{fill:#ff0;}</style></defs><title>header-image-lg</title><path class="cls-1" d="M1280,146.82C761.22,228.47,533.27,195,424,142c-24.56-11.9-113.24-58.76-230-53C110.07,93.14,42.91,122.92,0,146.82V23H1280Z"/><path class="cls-2" d="M1280,144.53a2570.47,2570.47,0,0,1-361,20.68c-230.27-3.18-332.48-36.15-564-39.7a2596.62,2596.62,0,0,0-355,19V0H1280Z"/><g class="cls-3"><path class="cls-4" d="M1280,142.56c-240.32-20.07-429.13-16-558-8.5C593.74,141.58,488.58,154.7,310,155c-131.9.22-239.74-6.65-310-12.45V0H1280Z"/></g><path class="cls-4" d="M1468,638"/><path class="cls-5" d="M823,551"/><path class="cls-2" d="M1530,402"/><path class="cls-1" d="M1610,526"/><path class="cls-4" d="M1928,140"/><path class="cls-2" d="M1759,682"/><path class="cls-6" d="M498.5,227.5"/><path class="cls-7" d="M613.5,141.5,450.38,152.37q-6.92-2.88-13.88-5.87-25.22-10.81-49-22c48.2,1.37,98.61,4.23,151,9Q576.87,137,613.5,141.5Z"/><path class="cls-6" d="M387.5,124.5c48.2,1.37,98.61,4.23,151,9q38.37,3.5,75,8"/><path class="cls-6" d="M387.5,124.5q23.79,11.16,49,22,7,3,13.88,5.87l5.12,2.13"/><polyline class="cls-6" points="613.5 141.5 450.38 152.37 448.5 152.5"/></svg>