<svg id="レイヤー_1" data-name="レイヤー 1" xmlns="http://www.w3.org/2000/svg" viewBox="0 0 2040 149.08"><defs><style>.cls-1,.cls-5{fill:#e55812;}.cls-1{stroke:#ff66ac;}.cls-1,.cls-10,.cls-11,.cls-2,.cls-3,.cls-8,.cls-9{stroke-miterlimit:10;}.cls-1,.cls-2,.cls-3{opacity:0.5;}.cls-2{fill:#ff0;}.cls-2,.cls-8{stroke:#ff0;}.cls-10,.cls-3,.cls-6{fill:#7bffa3;}.cls-10,.cls-3{stroke:#7bffa3;}.cls-11,.cls-4,.cls-9{fill:#09ce4a;}.cls-7{fill:#f60;}.cls-8{fill:none;}.cls-11,.cls-9{stroke:#09ce4a;}.cls-9{opacity:0.9;}</style></defs><title>header-image-small</title><path class="cls-1" d="M2038,130.36c-461.15,24.25-700.77,16.48-835.16,2.54-27.19-2.82-107.87-11.88-218-13.24-110.52-1.36-150.76,6.28-313.18,16.3-193.92,12-293.2,16.63-411,8.66-58.66-4-147.2-13.41-255.64-39.22q-2-39-4.07-77.91H2038Z" transform="translate(0.5)"/><path class="cls-2" d="M2038,141.05c-23.42-2.52-59.63-5.87-103.94-7.64-107.09-4.26-179.73,4-233.35,8.15-142.42,11-144.43-7.34-418.29-9.17-78-.51-59.2,1.1-222.14,2.55-193.84,1.73-353,3.15-550.77-1.53-120-2.83-164.18-5.78-263.92-4.07C141.76,131.12,56.6,136.6,0,141.05V21.89H2038Z" transform="translate(0.5)"/><path class="cls-3" d="M2038,121.7a2181.24,2181.24,0,0,0-259.84-6.14c-125.12,4.62-150.23,16.63-261.88,16.06-115.59-.6-129.9-13.69-245.58-17-124.88-3.58-162.52,10.12-288.38,17-184,10-194.58-33.68-393.84-14.64-98,9.36-136.72,26.65-233.65,20.51-72-4.57-108-6.85-151.3-17.32-42.22-10.2-67.8-21.27-108-18.84C54.28,103.82,21.39,119.07,0,131.62V11.19H2038Z" transform="translate(0.5)"/><path class="cls-4" d="M1440.9,140.29" transform="translate(0.5)"/><path class="cls-5" d="M1112.44,96" transform="translate(0.5)"/><path class="cls-6" d="M1472.47,20.11" transform="translate(0.5)"/><path class="cls-7" d="M1513.21,83.25" transform="translate(0.5)"/><path class="cls-4" d="M2234.11-151.31" transform="translate(0.5)"/><path class="cls-6" d="M1589.09,162.69" transform="translate(0.5)"/><path class="cls-8" d="M1263.17-91.87" transform="translate(0.5)"/><path class="cls-9" d="M2039,119.66a3806.77,3806.77,0,0,1-397.51,1.53c-108.58-5.35-143.8-11.91-247.68-15.79-155.24-5.79-177.5,5.11-378.14,8.66-321,5.68-368.91-20.07-583,0-34,3.19-85.11,8.75-158.49,9.68A1644,1644,0,0,1,.5,104.39V.5H2039Z" transform="translate(0.5)"/><path class="cls-10" d="M716.4,227.36" transform="translate(0.5)"/><path class="cls-11" d="M1799.07,317.69" transform="translate(0.5)"/></svg>