<svg id="レイヤー_1" data-name="レイヤー 1" xmlns="http://www.w3.org/2000/svg" viewBox="0 0 2038.49 149.08"><defs><style>.cls-1{fill:#e55812;stroke:#ff66ac;}.cls-1,.cls-2,.cls-3,.cls-4{stroke-miterlimit:10;}.cls-1,.cls-2,.cls-3{opacity:0.5;}.cls-2{fill:#ff0;stroke:#ff0;}.cls-3{fill:#7bffa3;stroke:#7bffa3;}.cls-4{fill:#09ce4a;stroke:#09ce4a;opacity:0.9;}</style></defs><title>アートボード 1</title><path class="cls-1" d="M2038,130.36c-461.15,24.25-700.77,16.48-835.16,2.54-27.19-2.82-107.87-11.88-218-13.24-110.52-1.36-150.76,6.28-313.18,16.3-193.92,12-293.2,16.63-411,8.66-58.66-4-147.2-13.41-255.64-39.22q-2-39-4.07-77.91H2038Z"/><path class="cls-2" d="M2038,141.05c-23.41-2.52-59.6-5.87-103.88-7.64-107-4.26-179.65,4-233.24,8.15-142.35,11-144.36-7.34-418.09-9.17-77.92-.51-59.17,1.1-222,2.55-193.74,1.73-352.84,3.15-550.49-1.53-119.91-2.83-164.1-5.78-263.79-4.07C142.7,131.12,57.58,136.6,1,141.05V21.89H2038Z"/><path class="cls-3" d="M2038,121.7a2179.72,2179.72,0,0,0-259.75-6.14c-125.07,4.62-150.17,16.63-261.78,16.06-115.55-.6-129.85-13.69-245.49-17-124.83-3.58-162.45,10.12-288.27,17C798.76,141.66,788.19,97.94,589,117c-97.92,9.36-136.67,26.65-233.57,20.51-72-4.57-107.94-6.85-151.24-17.32C162,110,136.43,98.9,96.24,101.33,55,103.82,22.14,119.07.75,131.62V11.19H2038Z"/><path class="cls-4" d="M2037.48,119.66a3801,3801,0,0,1-397.21,1.53c-108.5-5.35-143.7-11.91-247.49-15.79-155.14-5.79-177.38,5.11-377.86,8.66-320.8,5.68-368.64-20.07-582.58,0-34,3.19-85,8.75-158.38,9.68A1641.55,1641.55,0,0,1,.5,104.39V.5h2037Z"/></svg>