<svg id="レイヤー_1" data-name="レイヤー 1" xmlns="http://www.w3.org/2000/svg" viewBox="0 0 4002 291.77"><defs><style>.cls-1{fill:#ff66ac;stroke:#ff66ac;}.cls-1,.cls-10,.cls-11,.cls-2,.cls-3,.cls-8,.cls-9{stroke-miterlimit:10;}.cls-1,.cls-2,.cls-3{opacity:0.5;}.cls-2{fill:#ff0;}.cls-2,.cls-8{stroke:#ff0;}.cls-10,.cls-3,.cls-6{fill:#7bffa3;}.cls-10,.cls-3{stroke:#7bffa3;}.cls-11,.cls-4,.cls-9{fill:#09ce4a;}.cls-5{fill:#e55812;}.cls-7{fill:#f60;}.cls-8{fill:none;}.cls-11,.cls-9{stroke:#09ce4a;}.cls-9{opacity:0.9;}</style></defs><title>header-image-3</title><path class="cls-1" d="M4000.5,256.5c-905.56,47.62-1376.1,32.36-1640,5-53.4-5.54-211.81-23.33-428-26-217-2.68-296,12.32-615,32-380.8,23.5-575.75,32.65-807,17-115.19-7.8-289.06-26.32-502-77q-4-76.5-8-153h4000Z" transform="translate(1 -1)"/><path class="cls-2" d="M4000.5,277.5c-46-4.95-117-11.53-204-15-210.2-8.38-352.77,7.84-458,16-279.54,21.68-283.49-14.42-821-18-153-1-116.2,2.15-436,5-380.44,3.39-692.87,6.17-1081-3-235.45-5.57-322.23-11.36-518-8-203.77,3.5-370.92,14.26-482,23V43.5h4000Z" transform="translate(1 -1)"/><path class="cls-3" d="M4000.5,239.5c-217.09-17.88-392.45-16.4-510.06-12.06-245.61,9.07-294.9,32.66-514.07,31.53-226.9-1.17-255-26.88-482.06-33.38-245.13-7-319,19.89-566.07,33.38-361.21,19.73-382-66.14-773.1-28.75C962.87,248.6,886.77,282.56,696.5,270.5c-141.31-9-212-13.44-297-34-82.88-20-133.08-41.77-212-37C106.55,204.39,42,234.34,0,259V22.5H4000.5Z" transform="translate(1 -1)"/><path class="cls-4" d="M2828,276" transform="translate(1 -1)"/><path class="cls-5" d="M2183,189" transform="translate(1 -1)"/><path class="cls-6" d="M2890,40" transform="translate(1 -1)"/><path class="cls-7" d="M2970,164" transform="translate(1 -1)"/><path class="cls-4" d="M3288-222" transform="translate(1 -1)"/><path class="cls-6" d="M3119,320" transform="translate(1 -1)"/><path class="cls-8" d="M1858.5-134.5" transform="translate(1 -1)"/><path class="cls-9" d="M3999.5,235.5c-329.4,18.15-596.22,12.06-780,3-213.07-10.5-282.18-23.38-486-31-304.63-11.38-348.31,10-742,17-629.95,11.15-723.89-39.42-1144,0-66.77,6.26-167,17.17-311,19a3222.37,3222.37,0,0,1-537-38V1.5h4000Z" transform="translate(1 -1)"/><path class="cls-10" d="M1053.5,335.5" transform="translate(1 -1)"/><path class="cls-11" d="M2647.5,468.5" transform="translate(1 -1)"/></svg>