<svg id="レイヤー_1" data-name="レイヤー 1" xmlns="http://www.w3.org/2000/svg" viewBox="0 0 3800 522"><defs><style>.cls-1{fill:#e55812;}.cls-2{fill:#7bffa3;}.cls-3,.cls-8{fill:#ffc;}.cls-3{opacity:0.46;}.cls-4{opacity:0.58;}.cls-5{fill:#09ce4a;}.cls-6{fill:#f60;}.cls-7{fill:none;stroke:#ff0;stroke-miterlimit:10;}</style></defs><title>header-image-3</title><path class="cls-1" d="M3798,185.5a1705.71,1705.71,0,0,1-237,62c-362.49,67.42-449.83-69.52-843-35-87.55,7.69-233,27.37-468.82,37.5-32.28,1.39-55.32,2.13-98.18,3.5-265.23,8.49-302,2.37-487,9-173.5,6.22-176.54,12.88-270,10-122.27-3.76-226.45-18.52-266.79-24.66-72.35-11-79.69-17-120.21-21.34-110.88-12-143.8,7.05-345,30C508.75,274,389.7,287,246,275.5a1398.79,1398.79,0,0,1-246-42L3,.5H3798Z" transform="translate(0 34.5)"/><path class="cls-2" d="M3800,233.59a1530.51,1530.51,0,0,0-259,4.91c-112.17,11.66-106.18,23.6-183,30-186.53,15.53-241.41-52.32-470-47-36.65.85-27.24,3.17-112.89,8.18-129.67,7.58-205.38,5.74-234.11,4.82-30.36-1-20.79-1.34-79-4-17.08-.78-144.31-6.6-212-6-23.1.21-39.36,1.53-75.21,3.76-224.57,14-220.88,17-269.79,18.24-133.22,3.43-154-18.82-361-29-66.23-3.26-132.88-4.63-132.88-4.63-39.28-.77-76-1.06-110.75-1-119.08.29-229,5.19-260.37,6.61-292.87,13.23-440.34,19.93-491,24-145.88,11.71-157.79,17.34-236,18A1670,1670,0,0,1,0,233.59V-14.5H3800Z" transform="translate(0 34.5)"/><path class="cls-3" d="M3795,269.5c-88.83,32.08-147.43,22.73-184,9-62.35-23.41-78.53-66.29-152-86-53.42-14.33-97.52-6.11-127-1-127.54,22.09-258.67,15.1-387,32-167.39,22.05-293.51,27.73-477,36-368.38,16.6-345-35.91-775-30-208.81,2.87-457,18.58-613,33.55l-7.71.74C922.49,277.73,785.68,274,637,259.5c-249.68-24.41-233.84-50.13-346-44-124.14,6.79-224.36,42.72-291,73v-306H3795Z" transform="translate(0 34.5)"/><g class="cls-4"><path class="cls-5" d="M3798,249.84c-83.12-22-151.33-30-197.17-33.21-147.6-10.5-227.84,15.77-427.83-3.34-24.23-2.32-35.76-3.92-55.2-6.16-281.28-32.44-510-2.23-803.82-1.69-239.69.44-188.95-19.48-398-16.27-287,4.39-347.83,41.41-591.32,54.73C1018,260.67,980.52,209.29,629,204.51c-149.31-2-365.18,4.23-629,45.33V-34.5H3798Z" transform="translate(0 34.5)"/></g><path class="cls-5" d="M2728,632.5" transform="translate(0 34.5)"/><path class="cls-1" d="M2083,545.5" transform="translate(0 34.5)"/><path class="cls-2" d="M2790,396.5" transform="translate(0 34.5)"/><path class="cls-6" d="M2870,520.5" transform="translate(0 34.5)"/><path class="cls-5" d="M3188,134.5" transform="translate(0 34.5)"/><path class="cls-2" d="M3019,676.5" transform="translate(0 34.5)"/><path class="cls-7" d="M1758.5,222" transform="translate(0 34.5)"/><path class="cls-2" d="M867,265.5" transform="translate(0 34.5)"/><path class="cls-5" d="M3252,498.5" transform="translate(0 34.5)"/><path class="cls-8" d="M1041,1609.5" transform="translate(0 34.5)"/><path class="cls-8" d="M544,194.5" transform="translate(0 34.5)"/><path class="cls-8" d="M2727,483.5" transform="translate(0 34.5)"/><path class="cls-2" d="M1264,368.5" transform="translate(0 34.5)"/><path class="cls-2" d="M1487,245.5" transform="translate(0 34.5)"/><path class="cls-2" d="M1669,471.5" transform="translate(0 34.5)"/><path class="cls-5" d="M2199,487.5l-100-226" transform="translate(0 34.5)"/><path class="cls-8" d="M948,278.5" transform="translate(0 34.5)"/><path class="cls-8" d="M1142,395.5" transform="translate(0 34.5)"/><path class="cls-1" d="M1313,353.5" transform="translate(0 34.5)"/><path class="cls-1" d="M1138,431.5" transform="translate(0 34.5)"/><path class="cls-8" d="M277,246.5" transform="translate(0 34.5)"/><path class="cls-1" d="M950,376.5" transform="translate(0 34.5)"/><path class="cls-2" d="M836,304.5" transform="translate(0 34.5)"/><path class="cls-2" d="M903,260.5" transform="translate(0 34.5)"/><path class="cls-8" d="M457,218.5" transform="translate(0 34.5)"/><path class="cls-8" d="M659,354.5" transform="translate(0 34.5)"/><path class="cls-8" d="M2807,329.5" transform="translate(0 34.5)"/><path class="cls-8" d="M1704,340.5" transform="translate(0 34.5)"/><path class="cls-8" d="M734,344.5" transform="translate(0 34.5)"/></svg>